<mxfile host="app.diagrams.net" modified="2024-02-12T11:41:54.309Z" agent="Mozilla/5.0 (Macintosh; Intel Mac OS X 10_15_7) AppleWebKit/605.1.15 (KHTML, like Gecko) Version/17.2 Safari/605.1.15" version="23.1.2" etag="McXK7b9_IlqPD9qAqPif" type="github">
  <diagram name="Page-1" id="RrIAOANie2ZKU8wDyfGD">
    <mxGraphModel>
      <root>
        <mxCell id="0" />
        <mxCell id="1" parent="0" />
      </root>
    </mxGraphModel>
  </diagram>
</mxfile>
